<?xml version="1.0" encoding="UTF-8"?>
<!DOCTYPE svg PUBLIC "-//W3C//DTD SVG 1.1//EN" "http://www.w3.org/Graphics/SVG/1.1/DTD/svg11.dtd">
<!-- Creator: CorelDRAW X8 -->
<svg xmlns="http://www.w3.org/2000/svg" xml:space="preserve" width="44.979mm" height="30.03mm" version="1.1" style="shape-rendering:geometricPrecision; text-rendering:geometricPrecision; image-rendering:optimizeQuality; fill-rule:evenodd; clip-rule:evenodd"
viewBox="0 0 4498 3003"
 xmlns:xlink="http://www.w3.org/1999/xlink">
 <defs>
  <style type="text/css">
   <![CDATA[
    .fil6 {fill:#F3F587}
    .fil3 {fill:white}
    .fil8 {fill:#52ABB3;fill-rule:nonzero}
    .fil4 {fill:#E6E87F;fill-rule:nonzero}
    .fil9 {fill:#EBED5C;fill-rule:nonzero}
    .fil5 {fill:#F3F587;fill-rule:nonzero}
    .fil2 {fill:#317E85;fill-opacity:0.058824}
    .fil0 {fill:black;fill-opacity:0.121569}
    .fil7 {fill:black;fill-rule:nonzero;fill-opacity:0.121569}
    .fil1 {fill:url(#id0)}
   ]]>
  </style>
  <radialGradient id="id0" gradientUnits="userSpaceOnUse" gradientTransform="matrix(1.30746 0.8287 -0.730265 0.944167 115 -1635)" cx="2041.47" cy="1017.24" r="641.74" fx="2041.47" fy="1017.24">
   <stop offset="0" style="stop-opacity:1; stop-color:#2EC7C7"/>
   <stop offset="1" style="stop-opacity:1; stop-color:#58A7B0"/>
  </radialGradient>
 </defs>
 <g id="Warstwa_x0020_1">
  <metadata id="CorelCorpID_0Corel-Layer"/>
  <path class="fil0" d="M2159 382c362,0 655,294 655,655 0,362 -293,655 -655,655 -361,0 -654,-293 -654,-655 0,-361 293,-655 654,-655z"/>
  <path class="fil1" d="M2159 362c362,0 655,294 655,655 0,362 -293,655 -655,655 -361,0 -654,-293 -654,-655 0,-361 293,-655 654,-655z"/>
  <path class="fil2" d="M1926 1330l433 311c264,-84 455,-332 455,-624 0,-47 -5,-93 -14,-137l-297 -148 -175 260 -238 275 -164 63z"/>
  <path class="fil3" d="M2026 713l155 0 24 224 50 92 -37 139 -46 136 -7 57 -139 0c-117,0 -213,-96 -213,-212l0 -224c0,-117 96,-212 213,-212zm23 183l27 0 0 295 -27 0c-36,0 -65,-44 -65,-97l0 -101c0,-53 29,-97 65,-97z"/>
  <path class="fil4" d="M2238 972l-38 -259 -136 0 40 259c17,0 31,6 43,18 12,12 18,26 18,43l0 8c0,17 -6,31 -18,43 -12,12 -26,18 -43,18l-40 259 136 0 38 -259 72 0 38 259 136 0 -39 -259c-17,0 -32,-6 -44,-18 -12,-12 -18,-26 -18,-43l0 -8c0,-17 6,-31 18,-43 12,-12 27,-18 44,-18l39 -259 -136 0 -38 259 -72 0z"/>
  <path class="fil5" d="M2248 972l-38 -259 -136 0 40 259c17,0 31,6 43,18 12,12 18,26 18,43l0 8c0,17 -6,31 -18,43 -12,12 -26,18 -43,18l-40 259 136 0 38 -259 72 0 38 259 136 0 -39 -259c-17,0 -32,-6 -44,-18 -12,-12 -18,-26 -18,-43l0 -8c0,-17 6,-31 18,-43 12,-12 27,-18 44,-18l39 -259 -136 0 -38 259 -72 0z"/>
  <path class="fil3" d="M1910 1327c3,13 3,36 4,52 1,17 1,27 1,35 0,8 -1,13 -2,18 0,6 0,12 1,17 2,4 5,6 8,6 4,0 8,-2 9,-5 2,-4 2,-8 1,-13 -1,-4 -3,-9 -4,-17 -1,-8 -1,-20 -1,-32 -1,-12 -2,-25 -2,-33 0,-8 1,-12 2,-16 1,-4 4,-8 6,-10 1,-2 3,-2 5,-4 1,-2 2,-6 3,-13 0,-8 0,-19 -8,-27 -7,-9 -22,-14 -30,-12 -8,1 -9,9 -10,17 0,7 1,14 5,19 3,4 8,6 12,18z"/>
  <path class="fil6" d="M2369 1336c2,12 3,35 3,51 1,17 1,27 1,35 0,8 -1,13 -1,18 -1,6 -1,13 1,17 1,4 3,6 6,6 2,0 5,-2 7,-5 1,-4 1,-8 0,-13 -1,-4 -2,-8 -3,-17 0,-8 -1,-19 -1,-32 0,-12 -1,-25 -1,-33 0,-8 0,-12 1,-16 1,-4 3,-8 5,-10 1,-2 2,-2 4,-4 1,-2 2,-6 2,-13 0,-8 0,-19 -6,-27 -6,-8 -17,-13 -23,-12 -6,2 -7,10 -7,17 -1,7 0,14 3,19 2,4 7,6 9,19z"/>
  <path class="fil6" d="M2349 1299c-3,18 -2,40 -2,57 1,17 1,27 1,35 0,7 -1,12 -1,18 -1,6 -1,12 0,16 1,5 3,7 6,7 2,0 4,-2 5,-6 2,-3 1,-8 1,-12 -1,-5 -2,-9 -3,-17 0,-8 0,-20 -1,-32 0,-13 0,-25 0,-33 -1,-9 0,-13 1,-17 1,-4 2,-8 3,-10 2,-2 3,-2 4,-3 1,-2 1,-6 2,-14 0,-7 0,-19 -4,-18 -3,0 -9,12 -12,29z"/>
  <path class="fil3" d="M1874 1237c2,15 1,42 2,57 1,15 3,18 4,23 1,6 0,14 -1,21 -1,7 -1,14 1,18 1,4 4,6 7,6 3,0 5,-2 6,-5 2,-3 2,-7 1,-14 -1,-7 -4,-17 -3,-24 0,-7 4,-12 4,-22 1,-9 -2,-24 -3,-34 -1,-9 -1,-13 1,-17 1,-4 3,-8 5,-10 2,-2 4,-2 5,-4 2,-2 3,-6 3,-13 1,-8 0,-19 -7,-27 -8,-9 -22,-14 -30,-12 -8,1 -10,9 -10,17 0,7 1,14 4,19 4,4 9,6 11,21z"/>
  <path class="fil6" d="M2355 1378c1,-1 0,-6 1,-9 0,-3 1,-5 3,-6 1,-1 2,-2 4,-2 1,0 3,1 5,2 1,1 2,2 3,5 1,3 1,8 2,9 1,1 1,-2 1,-6 1,-3 1,-8 2,-12 1,-5 3,-10 4,-15 0,-5 0,-9 -5,-12 -6,-3 -17,-6 -23,-6 -6,0 -7,3 -7,7 0,4 1,8 3,15 1,7 2,16 3,22 2,6 3,9 4,8z"/>
  <path class="fil7" d="M1476 1809l0 250c0,26 -5,50 -15,73 -10,23 -23,43 -40,60 -17,17 -37,30 -60,40 -23,10 -47,15 -73,15 -26,0 -50,-5 -73,-15 -22,-10 -42,-23 -59,-40 -17,-17 -30,-37 -40,-60 -10,-23 -15,-47 -15,-73 0,-25 5,-50 15,-73 10,-23 23,-43 40,-59 17,-17 37,-31 59,-41 23,-9 47,-14 73,-14 19,0 36,2 53,7 17,5 33,12 47,22l0 -92 88 0zm-188 350c14,0 27,-3 39,-8 12,-5 23,-12 32,-21 9,-9 16,-20 21,-32 6,-12 8,-25 8,-39 0,-14 -2,-27 -8,-39 -5,-12 -12,-22 -21,-31 -9,-9 -20,-17 -32,-22 -12,-5 -25,-8 -39,-8 -13,0 -26,3 -39,8 -12,5 -22,13 -31,22 -9,9 -16,19 -22,31 -5,12 -7,25 -7,39 0,14 2,27 7,39 6,12 13,23 22,32 9,9 19,16 31,21 13,5 26,8 39,8zm569 -63c-4,21 -12,41 -23,60 -11,18 -25,34 -41,48 -16,13 -35,24 -55,31 -21,8 -42,12 -65,12 -26,0 -51,-5 -74,-15 -22,-10 -42,-24 -59,-41 -17,-17 -31,-37 -41,-59 -10,-23 -15,-48 -15,-74 0,-26 5,-50 15,-73 10,-23 24,-43 41,-60 17,-17 37,-30 59,-40 23,-10 48,-15 74,-15 19,0 38,3 55,8 18,6 34,14 49,24 15,10 28,22 40,36 11,13 21,29 28,45 2,4 3,8 4,11l-8 14 -32 50 -116 0 46 -74c-9,-9 -19,-15 -30,-20 -12,-4 -24,-6 -36,-6 -14,0 -27,2 -40,8 -12,5 -22,12 -32,21 -9,9 -16,20 -21,32 -5,12 -8,25 -8,39 0,14 3,27 8,40 5,12 12,22 21,32 10,9 20,16 32,21 13,5 26,8 40,8 21,0 40,-6 56,-18 17,-12 29,-27 37,-45l91 0zm252 -105c21,15 37,34 49,57 13,22 19,48 19,75 0,22 -4,43 -13,62 -8,20 -20,38 -35,53l-8 9 -9 -9 -44 -44 -9 -8 9 -8c15,-16 22,-34 22,-55 0,-10 -2,-20 -6,-29 -3,-9 -8,-17 -15,-24 -6,-7 -14,-13 -23,-17 -9,-4 -18,-7 -28,-8 -10,1 -19,4 -28,8 -9,4 -16,10 -23,17 -6,7 -11,15 -15,24 -4,9 -5,19 -5,29 0,21 7,39 22,55l8 8 -8 8 -45 44 -8 9 -9 -9c-15,-15 -26,-33 -35,-53 -8,-19 -12,-40 -12,-62 0,-28 6,-54 19,-77 12,-23 29,-42 50,-57 -15,-13 -27,-29 -36,-47 -9,-19 -13,-39 -13,-60l0 -12 12 0 48 0 12 0 0 12c0,9 2,18 5,27 4,8 9,15 15,21 6,6 13,11 22,15 8,3 17,5 26,5 10,0 18,-2 27,-5 8,-4 15,-9 21,-15 7,-6 12,-13 15,-21 4,-9 6,-18 6,-27l0 -12 11 0 49 0 12 0 0 12c0,22 -5,43 -14,61 -9,19 -22,35 -38,48zm455 68c0,25 -5,49 -15,72 -11,22 -24,42 -41,60 -18,17 -38,31 -61,41 -23,10 -47,15 -72,15 -28,0 -54,-5 -77,-15 -23,-10 -43,-24 -59,-41 -17,-18 -30,-38 -39,-60 -9,-23 -13,-47 -13,-72 0,-25 4,-49 13,-72 9,-23 22,-43 39,-60 16,-18 36,-31 59,-42 23,-10 49,-15 77,-15 25,0 49,5 72,15 23,11 43,24 61,42 17,17 30,37 41,60 10,23 15,47 15,72zm-88 0c0,-13 -3,-26 -8,-38 -6,-12 -14,-22 -23,-32 -10,-9 -20,-17 -32,-23 -12,-5 -25,-8 -38,-8 -16,0 -30,3 -42,8 -12,6 -23,14 -31,23 -9,10 -16,20 -20,32 -5,12 -7,25 -7,38 0,12 2,25 7,37 4,12 11,23 20,32 8,10 19,17 31,23 12,6 26,8 42,8 13,0 26,-2 38,-8 12,-6 22,-13 32,-23 9,-9 17,-20 23,-32 5,-12 8,-25 8,-37zm463 -250l0 250c0,26 -5,50 -15,73 -10,23 -23,43 -40,60 -17,17 -37,30 -60,40 -23,10 -47,15 -73,15 -26,0 -50,-5 -73,-15 -22,-10 -42,-23 -59,-40 -17,-17 -30,-37 -40,-60 -10,-23 -15,-47 -15,-73 0,-25 5,-50 15,-73 10,-23 23,-43 40,-59 17,-17 37,-31 59,-41 23,-9 47,-14 73,-14 19,0 36,2 53,7 17,5 33,12 47,22l0 -92 88 0zm-188 350c14,0 27,-3 39,-8 12,-5 23,-12 32,-21 9,-9 16,-20 21,-32 6,-12 8,-25 8,-39 0,-14 -2,-27 -8,-39 -5,-12 -12,-22 -21,-31 -9,-9 -20,-17 -32,-22 -12,-5 -25,-8 -39,-8 -13,0 -26,3 -39,8 -12,5 -22,13 -31,22 -9,9 -16,19 -22,31 -5,12 -7,25 -7,39 0,14 2,27 7,39 6,12 13,23 22,32 9,9 19,16 31,21 13,5 26,8 39,8zm569 -63c-4,21 -12,41 -23,60 -11,18 -25,34 -41,48 -16,13 -35,24 -55,31 -21,8 -42,12 -65,12 -26,0 -51,-5 -74,-15 -22,-10 -42,-24 -59,-41 -17,-17 -31,-37 -41,-59 -10,-23 -15,-48 -15,-74 0,-26 5,-50 15,-73 10,-23 24,-43 41,-60 17,-17 37,-30 59,-40 23,-10 48,-15 74,-15 19,0 38,3 55,8 18,6 34,14 49,24 15,10 28,22 40,36 11,13 21,29 28,45 2,4 3,8 4,11l-8 14 -32 50 -116 0 46 -74c-9,-9 -19,-15 -31,-20 -11,-4 -23,-6 -35,-6 -14,0 -27,2 -40,8 -12,5 -22,12 -32,21 -9,9 -16,20 -21,32 -5,12 -8,25 -8,39 0,14 3,27 8,40 5,12 12,22 21,32 10,9 20,16 32,21 13,5 26,8 40,8 21,0 40,-6 56,-18 17,-12 29,-27 37,-45l91 0z"/>
  <g id="_2660334264800">
   <path class="fil8" d="M1476 1789l0 250c0,26 -5,50 -15,73 -10,23 -23,43 -40,60 -17,17 -37,30 -60,40 -23,10 -47,15 -73,15 -26,0 -50,-5 -73,-15 -22,-10 -42,-23 -59,-40 -17,-17 -30,-37 -40,-60 -10,-23 -15,-47 -15,-73 0,-25 5,-50 15,-73 10,-23 23,-43 40,-59 17,-17 37,-31 59,-41 23,-9 47,-14 73,-14 19,0 36,2 53,7 17,5 33,12 47,22l0 -92 88 0zm-188 350c14,0 27,-3 39,-8 12,-5 23,-12 32,-21 9,-9 16,-20 21,-32 6,-12 8,-25 8,-39 0,-14 -2,-27 -8,-39 -5,-12 -12,-22 -21,-31 -9,-9 -20,-17 -32,-22 -12,-5 -25,-8 -39,-8 -13,0 -26,3 -39,8 -12,5 -22,13 -31,22 -9,9 -16,19 -22,31 -5,12 -7,25 -7,39 0,14 2,27 7,39 6,12 13,23 22,32 9,9 19,16 31,21 13,5 26,8 39,8zm569 -63c-4,21 -12,41 -23,60 -11,18 -25,34 -41,48 -16,13 -35,24 -55,31 -21,8 -42,12 -65,12 -26,0 -51,-5 -74,-15 -22,-10 -42,-24 -59,-41 -17,-17 -31,-37 -41,-59 -10,-23 -15,-48 -15,-74 0,-26 5,-50 15,-73 10,-23 24,-43 41,-60 17,-17 37,-30 59,-40 23,-10 48,-15 74,-15 19,0 38,3 55,8 18,6 34,14 49,24 15,10 28,22 40,36 11,13 21,29 28,45 2,4 3,8 4,11l-8 14 -32 50 -116 0 46 -74c-9,-9 -19,-15 -30,-20 -12,-4 -24,-6 -36,-6 -14,0 -27,2 -40,8 -12,5 -22,12 -32,21 -9,9 -16,20 -21,32 -5,12 -8,25 -8,39 0,14 3,27 8,40 5,12 12,22 21,32 10,9 20,16 32,21 13,5 26,8 40,8 21,0 40,-6 56,-18 17,-12 29,-27 37,-45l91 0z"/>
   <path class="fil9" d="M2109 1971c21,15 37,34 49,57 13,22 19,48 19,75 0,22 -4,43 -13,62 -8,20 -20,38 -35,53l-8 9 -9 -9 -44 -44 -9 -8 9 -8c15,-16 22,-34 22,-55 0,-10 -2,-20 -6,-29 -3,-9 -8,-17 -15,-24 -6,-7 -14,-13 -23,-17 -9,-4 -18,-7 -28,-8 -10,1 -19,4 -28,8 -9,4 -16,10 -23,17 -6,7 -11,15 -15,24 -4,9 -5,19 -5,29 0,21 7,39 22,55l8 8 -8 8 -45 44 -8 9 -9 -9c-15,-15 -26,-33 -35,-53 -8,-19 -12,-40 -12,-62 0,-28 6,-54 19,-77 12,-23 29,-42 50,-57 -15,-13 -27,-29 -36,-47 -9,-19 -13,-39 -13,-60l0 -12 12 0 48 0 12 0 0 12c0,9 2,18 5,27 4,8 9,15 15,21 6,6 13,11 22,15 8,3 17,5 26,5 10,0 18,-2 27,-5 8,-4 15,-9 21,-15 7,-6 12,-13 15,-21 4,-9 6,-18 6,-27l0 -12 11 0 49 0 12 0 0 12c0,22 -5,43 -14,61 -9,19 -22,35 -38,48zm455 68c0,25 -5,49 -15,72 -11,22 -24,42 -41,60 -18,17 -38,31 -61,41 -23,10 -47,15 -72,15 -28,0 -54,-5 -77,-15 -23,-10 -43,-24 -59,-41 -17,-18 -30,-38 -39,-60 -9,-23 -13,-47 -13,-72 0,-25 4,-49 13,-72 9,-23 22,-43 39,-60 16,-18 36,-31 59,-42 23,-10 49,-15 77,-15 25,0 49,5 72,15 23,11 43,24 61,42 17,17 30,37 41,60 10,23 15,47 15,72zm-88 0c0,-13 -3,-26 -8,-38 -6,-12 -14,-22 -23,-32 -10,-9 -20,-17 -32,-23 -12,-5 -25,-8 -38,-8 -16,0 -30,3 -42,8 -12,6 -23,14 -31,23 -9,10 -16,20 -20,32 -5,12 -7,25 -7,38 0,12 2,25 7,37 4,12 11,23 20,32 8,10 19,17 31,23 12,6 26,8 42,8 13,0 26,-2 38,-8 12,-6 22,-13 32,-23 9,-9 17,-20 23,-32 5,-12 8,-25 8,-37zm463 -250l0 250c0,26 -5,50 -15,73 -10,23 -23,43 -40,60 -17,17 -37,30 -60,40 -23,10 -47,15 -73,15 -26,0 -50,-5 -73,-15 -22,-10 -42,-23 -59,-40 -17,-17 -30,-37 -40,-60 -10,-23 -15,-47 -15,-73 0,-25 5,-50 15,-73 10,-23 23,-43 40,-59 17,-17 37,-31 59,-41 23,-9 47,-14 73,-14 19,0 36,2 53,7 17,5 33,12 47,22l0 -92 88 0zm-188 350c14,0 27,-3 39,-8 12,-5 23,-12 32,-21 9,-9 16,-20 21,-32 6,-12 8,-25 8,-39 0,-14 -2,-27 -8,-39 -5,-12 -12,-22 -21,-31 -9,-9 -20,-17 -32,-22 -12,-5 -25,-8 -39,-8 -13,0 -26,3 -39,8 -12,5 -22,13 -31,22 -9,9 -16,19 -22,31 -5,12 -7,25 -7,39 0,14 2,27 7,39 6,12 13,23 22,32 9,9 19,16 31,21 13,5 26,8 39,8zm569 -63c-4,21 -12,41 -23,60 -11,18 -25,34 -41,48 -16,13 -35,24 -55,31 -21,8 -42,12 -65,12 -26,0 -51,-5 -74,-15 -22,-10 -42,-24 -59,-41 -17,-17 -31,-37 -41,-59 -10,-23 -15,-48 -15,-74 0,-26 5,-50 15,-73 10,-23 24,-43 41,-60 17,-17 37,-30 59,-40 23,-10 48,-15 74,-15 19,0 38,3 55,8 18,6 34,14 49,24 15,10 28,22 40,36 11,13 21,29 28,45 2,4 3,8 4,11l-8 14 -32 50 -116 0 46 -74c-9,-9 -19,-15 -31,-20 -11,-4 -23,-6 -35,-6 -14,0 -27,2 -40,8 -12,5 -22,12 -32,21 -9,9 -16,20 -21,32 -5,12 -8,25 -8,39 0,14 3,27 8,40 5,12 12,22 21,32 10,9 20,16 32,21 13,5 26,8 40,8 21,0 40,-6 56,-18 17,-12 29,-27 37,-45l91 0z"/>
  </g>
 </g>
</svg>
